<?xml version="1.0" standalone="no"?><!DOCTYPE svg PUBLIC "-//W3C//DTD SVG 1.1//EN" "http://www.w3.org/Graphics/SVG/1.1/DTD/svg11.dtd"><svg t="1576669905678" class="icon" viewBox="0 0 1024 1024" version="1.1" xmlns="http://www.w3.org/2000/svg" p-id="6011" xmlns:xlink="http://www.w3.org/1999/xlink" width="200" height="200"><defs><style type="text/css"></style></defs><path d="M452.8 554.17h-7.95c-85 0-154.13-69.14-154.13-154.12v-75.2c0-85 69.14-154.12 154.13-154.12A154.18 154.18 0 0 1 591.87 278.6a24 24 0 1 1-45.79 14.4 107 107 0 0 0-37.91-53.29 105.19 105.19 0 0 0-63.36-21 106.25 106.25 0 0 0-106.13 106.11V400a106.24 106.24 0 0 0 106.13 106.14h4.23c7.43 0 13.86 0.08 19.72-1.22a24 24 0 0 1 10.37 46.87c-9.49 2.12-18.33 2.38-26.33 2.38zM563.89 838.89H77.79v-85.34c0-77.8 63.29-141.1 141.09-141.1h250.3a24 24 0 1 1 0 48h-250.3a93.2 93.2 0 0 0-93.09 93.1v37.34h438.1a24 24 0 0 1 0 48z" p-id="6012"></path><path d="M743 839.12L730.2 831a1072 1072 0 0 1-93.27-67.58c-27.54-22.49-49.63-43.51-65.67-62.49-22.94-27.14-34.08-50.72-34.08-72.07V362h24c19.44 0 33.78-9.37 53.64-22.33 28.77-18.8 64.58-42.19 128.22-42.19 64 0 100.44 23.6 129.69 42.56 19.67 12.75 33.88 22 52.17 22h24v266.82c0 21.35-11.15 44.93-34.08 72.07-16 19-38.13 40-65.67 62.49A1069.57 1069.57 0 0 1 755.87 831z m-12.8-48.68z m-145-383.18v221.6c0 4.25 2.2 16.74 22.63 41 14.08 16.68 34 35.58 59.15 56.15 29.62 24.21 59.61 45 76.08 56 16.47-11 46.46-31.83 76.08-56 25.17-20.57 45.07-39.47 59.15-56.15 20.42-24.22 22.63-36.71 22.63-41V407.12c-20.75-5.07-37.72-16.08-54.28-26.81-26.44-17.13-53.76-34.84-103.64-34.84-49.35 0-76.1 17.47-102 34.37-16.83 11.04-34.15 22.35-55.82 27.42z" p-id="6013"></path><path d="M743 588.5a91.42 91.42 0 1 1 91.42-91.42A91.52 91.52 0 0 1 743 588.5z m0-134.84a43.42 43.42 0 1 0 43.42 43.42A43.47 43.47 0 0 0 743 453.66z" p-id="6014"></path><path d="M743 713.35a24 24 0 0 1-24-24V574.58a24 24 0 1 1 48 0v114.77a24 24 0 0 1-24 24z" p-id="6015"></path></svg>