<?xml version="1.0" standalone="no"?><!DOCTYPE svg PUBLIC "-//W3C//DTD SVG 1.1//EN" "http://www.w3.org/Graphics/SVG/1.1/DTD/svg11.dtd"><svg t="1576668865736" class="icon" viewBox="0 0 1024 1024" version="1.1" xmlns="http://www.w3.org/2000/svg" p-id="2762" xmlns:xlink="http://www.w3.org/1999/xlink" width="200" height="200"><defs><style type="text/css"></style></defs><path d="M644.1 341V209.9c0-0.9-0.2-1.7-0.2-2.6v-5.9h-0.5c-3.3-29-23.1-51.3-47.3-51.3H427.3c-24.1 0-43.9 22.3-47.3 51.3h-0.7v194.7h0.2v53.5c0 1-0.2 1.9-0.2 2.8v369.3h0.7c3.3 29 23.1 51.3 47.3 51.3h168.9c24.1 0 43.9-22.3 47.3-51.3h0.5v-4.4h0.2V392.5h-0.2v-48.9c0-0.9 0.1-1.7 0.1-2.6z m-198-103.2h131.2v333.5H446.1V237.8z m101.4 548.7c-22.1 12.8-49.5 12.8-71.7 0-22.2-12.8-35.9-36.5-35.9-62.1s13.6-49.3 35.9-62.1c22.2-12.8 49.5-12.8 71.7 0 22.2 12.8 35.9 36.5 35.9 62.1 0 25.7-13.6 49.3-35.9 62.1z m0 0" p-id="2763"></path><path d="M528.4 695.5c-10.3-6-23.1-6-33.4 0-10.3 6-16.7 17-16.7 28.9 0 18.5 15 33.4 33.4 33.4 18.5 0 33.4-15 33.4-33.4 0.1-11.9-6.3-23-16.7-28.9z m268 0c-10.3-6-23.1-6-33.4 0-10.4 6-16.7 17-16.7 28.9 0 12 6.3 23 16.7 28.9 10.3 6 23.1 6 33.4 0 10.4-5.9 16.7-17 16.7-28.9 0-11.9-6.4-23-16.7-28.9z m0 0" p-id="2764"></path><path d="M912 341V209.9c0-0.9-0.2-1.7-0.2-2.6v-5.9h-0.5c-3.4-29-23.1-51.3-47.3-51.3H695c-24.2 0-43.9 22.3-47.2 51.3h-0.7v194.7h0.2v53.5c0 1-0.2 1.9-0.2 2.8v369.3h0.7c3.3 29 23.1 51.3 47.2 51.3h169c24.1 0 43.9-22.3 47.3-51.3h0.5v-4.4h0.2V392.5h-0.2v-48.9c0.1-0.9 0.2-1.7 0.2-2.6zM714.1 237.8h131.2v333.5H714.1V237.8z m101.4 548.7a71.739 71.739 0 0 1-71.7 0C721.6 773.7 708 750 708 724.4s13.6-49.3 35.8-62.1c22.2-12.8 49.5-12.8 71.7 0 22.2 12.8 35.9 36.5 35.9 62.1 0 25.7-13.7 49.3-35.9 62.1z m0 0M244.4 691.2c-18.4 0-33.3 14.9-33.3 33.2 0 18.3 14.9 33.2 33.3 33.2 18.3 0 33.2-14.9 33.2-33.2 0-18.3-14.9-33.2-33.2-33.2z m0 0" p-id="2765"></path><path d="M376.8 341V209.9c0-0.9-0.2-1.7-0.2-2.6v-5.9h-0.6c-3.3-29-23.1-51.3-47.2-51.3h-169c-24.2 0-43.9 22.3-47.3 51.3h-0.7v194.7h0.2v53.5c0 1-0.2 1.9-0.2 2.8v369.3h0.7c3.4 29 23.1 51.3 47.3 51.3h169c24.2 0 43.9-22.3 47.2-51.3h0.5v-4.4h0.2V392.5h-0.2v-48.9c0.1-0.9 0.3-1.7 0.3-2.6zM178.7 237.8h131.2v333.5H178.7V237.8z m65.7 558.3c-39.6 0-71.7-32.1-71.7-71.7s32.1-71.7 71.7-71.7 71.7 32.1 71.7 71.7c-0.1 39.6-32.2 71.7-71.7 71.7z m0 0" p-id="2766"></path></svg>